<?xml version="1.0" encoding="UTF-8"?>
<svg width="77px" height="18px" viewBox="0 0 77 18" version="1.1" xmlns="http://www.w3.org/2000/svg" xmlns:xlink="http://www.w3.org/1999/xlink">
    <!-- Generator: Sketch 47.1 (45422) - http://www.bohemiancoding.com/sketch -->
    <title>-g-zenefits-logo-header</title>
    <desc>Created with Sketch.</desc>
    <defs></defs>
    <g id="Symbols" stroke="none" stroke-width="1" fill="none" fill-rule="evenodd">
        <g id="Header-/-Navy" transform="translate(-56.000000, -26.000000)">
            <g id="Header-/-white-/-red-logo" transform="translate(-80.000000, 0.000000)">
                <g id="Header">
                    <g id="-g-zenefits-logo-header" transform="translate(136.000000, 26.000000)">
                        <g id="Group">
                            <path d="M31.9767905,9.41936276 L27.8445401,9.41936276 L27.8445401,9.2665324 C27.8626603,8.83220709 27.8989006,8.62202419 28.0801679,8.29983593 C28.3701562,7.76746478 29.0407335,7.40326628 29.9106982,7.40326628 C30.7805971,7.40326628 31.4331201,7.76746478 31.7230425,8.29983593 C31.904244,8.62202419 31.9586044,8.83220709 31.9767905,9.2665324 L31.9767905,9.41936276 Z M29.8564696,5.64963504 C28.2585361,5.64963504 26.9800443,6.44361542 26.3495291,7.88447449 C26.0549284,8.55795528 25.9359285,9.37300663 25.9305913,10.3138912 L25.9305913,10.4264891 C25.9305913,14.0177063 27.7581564,15.2408759 30.1225392,15.2408759 C31.6085891,15.2408759 32.7636661,14.597948 33.5475767,13.7505001 C33.5736697,13.7223176 33.5712976,13.6780686 33.5428325,13.6522567 L32.4239298,12.6417721 C32.3966508,12.6171454 32.3549415,12.6183307 32.3287167,12.6440767 C31.6774456,13.2811443 31.0916048,13.5621124 30.1600974,13.5621124 C28.6145476,13.5621124 27.8110673,12.6037127 27.8110673,10.9846722 L27.8110673,10.9830919 L33.6974138,10.9830919 C33.7353673,10.9830919 33.7662704,10.952539 33.7667316,10.9146113 L33.7823479,9.51102147 C33.7823479,7.23166959 32.3393911,5.64963504 29.8564696,5.64963504 L29.8564696,5.64963504 Z" id="Fill-13" fill="#FF5745"></path>
                            <path d="M50.4514968,9.41936276 L46.3192118,9.41936276 L46.3192118,9.2665324 C46.3373321,8.83220709 46.3735727,8.62202419 46.5548416,8.29983593 C46.8448982,7.76746478 47.5154152,7.40326628 48.3854532,7.40326628 C49.2553593,7.40326628 49.9078219,7.76746478 50.1977467,8.29983593 C50.3790156,8.62202419 50.4333765,8.83220709 50.4514968,9.2665324 L50.4514968,9.41936276 Z M48.3311581,5.64963504 C46.7332112,5.64963504 45.4547747,6.44361542 44.8242541,7.88447449 C44.529651,8.55795528 44.4105841,9.37300663 44.4053128,10.3138912 L44.4053128,10.4264891 C44.4053128,14.0177063 46.2328933,15.2408759 48.5972959,15.2408759 C50.0832923,15.2408759 51.238445,14.597948 52.0223621,13.7505001 C52.0484553,13.7223176 52.0460832,13.6780686 52.0176179,13.6522567 L50.8987058,12.6417721 C50.8714265,12.6171454 50.8297169,12.6183307 50.8034919,12.6440767 C50.1522154,13.2811443 49.5663037,13.5621124 48.6348544,13.5621124 C47.0892916,13.5621124 46.2857387,12.6037127 46.2857387,10.9846722 L46.2857387,10.9830919 L52.1721346,10.9830919 C52.2100884,10.9830919 52.2409918,10.952539 52.241453,10.9146113 L52.2570694,9.51102147 C52.2570694,7.23166959 50.8141664,5.64963504 48.3311581,5.64963504 L48.3311581,5.64963504 Z" id="Fill-14" fill="#FF5745"></path>
                            <path d="M17.6485663,5.85005464 L17.6485663,7.40712648 C17.6485663,7.44521577 17.6795842,7.47615922 17.7178462,7.47615922 L22.0247892,7.47615922 L17.429202,15.0047271 C17.4011476,15.0506834 17.4344046,15.1094891 17.488406,15.1094891 L25.0507789,15.1094891 C25.0890409,15.1094891 25.1201246,15.0786767 25.1201246,15.0405219 L25.1201246,13.4836467 C25.1201246,13.4455574 25.0890409,13.4147451 25.0507789,13.4147451 L20.5536455,13.4147451 L25.1286858,5.88571828 C25.1566744,5.83976201 25.1233515,5.7810219 25.069416,5.7810219 L17.7178462,5.7810219 C17.6795842,5.7810219 17.6485663,5.81196535 17.6485663,5.85005464" id="Fill-15" fill="#FF5745"></path>
                            <path d="M67.1081466,3.35036496 L65.4411933,3.35036496 C65.4029051,3.35036496 65.371866,3.3813119 65.371866,3.41948636 L65.371866,5.76015225 L64.1370223,5.76015225 C64.0987341,5.76015225 64.0676949,5.79103348 64.0676949,5.82927364 L64.0676949,7.39107546 C64.0676949,7.42924992 64.0987341,7.46019686 64.1370223,7.46019686 L65.371866,7.46019686 L65.371866,12.3514553 C65.371866,14.381732 66.8525845,15.1782049 68.4735392,15.1750511 L68.4732756,15.1751825 C68.6400039,15.1751825 68.7424792,15.174394 68.8350694,15.1707803 C68.8723691,15.1694005 68.9017607,15.1388478 68.9017607,15.1017246 L68.9017607,13.5052964 C68.9017607,13.465545 68.8681515,13.4343352 68.8284135,13.4363721 C68.7412271,13.44084 68.6585879,13.4394602 68.5514995,13.4345323 C67.6381185,13.3921528 67.1775399,12.9179616 67.1775399,11.8378413 L67.1775399,7.46019686 L69.012869,7.46019686 C69.0511572,7.46019686 69.0822622,7.42924992 69.0822622,7.39107546 L69.0822622,5.82927364 C69.0822622,5.79103348 69.0511572,5.76015225 69.012869,5.76015225 L67.1775399,5.76015225 L67.1775399,3.41948636 C67.1775399,3.3813119 67.1464348,3.35036496 67.1081466,3.35036496" id="Fill-16" fill="#FF5745"></path>
                            <path d="M76.0441939,10.4081197 C75.4283588,9.97679997 74.5217986,9.73789495 73.3887461,9.5430438 C71.8884412,9.28497633 71.7040259,8.99773716 71.7188843,8.40462318 C71.7286146,8.01551354 71.924864,7.7646896 72.204544,7.60724145 C72.6739646,7.35990758 73.1665932,7.34403765 73.6293078,7.3840088 C74.1645393,7.43030159 74.8390848,7.63154022 75.3179727,8.15458945 C75.3434818,8.18244414 75.3868079,8.18402455 75.4148153,8.15867217 L76.5441203,7.13647739 C76.570747,7.11237616 76.5748232,7.07161481 76.5527986,7.04316746 C76.3506979,6.78253183 76.0899526,6.53605401 75.7926529,6.34284913 C75.4484768,6.11902383 75.0702448,5.94827391 74.6767599,5.83244316 C74.2538212,5.70785433 73.7733554,5.66004698 73.3336517,5.65056453 C72.5994095,5.6345629 71.9006698,5.82855799 71.5760858,5.97092642 C71.1904246,6.14016179 70.830404,6.37557674 70.55125,6.69330462 C70.2717672,7.0114276 70.0831443,7.40033969 69.9970839,7.81473586 C69.8982689,8.29089965 69.9099715,8.80868085 70.0525728,9.27562558 C70.1517165,9.6002019 70.3269932,9.8945529 70.5561151,10.14485 C71.2223768,10.8725621 72.2687113,11.0789371 73.292035,11.2635156 C73.9916952,11.3897507 75.2338846,11.4434187 75.2094931,12.4069408 C75.1858249,13.3433326 74.0519835,13.6307035 73.2911146,13.6307035 C72.4085513,13.6307035 71.6459729,13.3181778 71.0325704,12.6881217 C71.0064696,12.6613207 70.964064,12.6594769 70.936451,12.6845658 L69.8310115,13.6850959 C69.8030041,13.7103824 69.8001113,13.7538436 69.8251602,13.7820934 C70.6344834,14.6955034 72.0050074,15.2408759 73.4070233,15.2408759 C75.2016694,15.2408759 76.8992757,14.3681614 76.9950007,12.5079552 C77.0444411,11.5476598 76.7271548,10.8865224 76.0441939,10.4081197" id="Fill-17" fill="#FF5745"></path>
                            <path d="M61.659383,1.44525547 C60.9487743,1.44525547 60.3727506,2.01880392 60.3727506,2.7262112 C60.3727506,3.43375083 60.9487743,4.00729927 61.659383,4.00729927 C62.3699917,4.00729927 62.9460154,3.43375083 62.9460154,2.7262112 C62.9460154,2.01880392 62.3699917,1.44525547 61.659383,1.44525547" id="Fill-18" fill="#FF5745"></path>
                            <path d="M56.4626648,5.74693458 L56.4626648,4.45369722 C56.5168307,3.49146391 57.1746822,3.12007907 57.9207845,3.10495272 C58.2511305,3.09837604 58.7164949,3.12159171 59.0949296,3.17117984 C59.1364788,3.17663848 59.1731398,3.144347 59.1731398,3.10258512 L59.1731398,1.55279166 C59.1731398,1.51944792 59.1495579,1.49064208 59.116662,1.48452578 C58.7410677,1.41494456 58.3381922,1.37989088 57.9523593,1.37989088 C57.9285791,1.37989088 57.8874923,1.37956204 57.8695911,1.37956204 C57.8522184,1.37956204 57.8142362,1.37989088 57.7839165,1.37989088 C55.9499383,1.37989088 54.6487675,2.4032215 54.6487675,4.28947765 L54.6487675,4.78647697 L54.6487675,5.74693458 L53.2504945,5.74693458 C53.212116,5.74693458 53.1810037,5.77771342 53.1810037,5.8159239 C53.1808715,6.09069738 53.1808715,7.10475489 53.1808055,7.37952837 C53.1808055,7.41773886 53.2119839,7.44858346 53.2503624,7.44858346 L54.6487675,7.44858346 L54.6487675,15.0403682 C54.6487675,15.0785787 54.679946,15.1094891 54.7183245,15.1094891 L56.3891445,15.1094891 C56.427523,15.1094891 56.4586354,15.0785787 56.4586354,15.0403682 L56.4586354,7.44858346 L60.80644,7.44858346 L60.80644,15.0403682 C60.80644,15.0785787 60.8375524,15.1094891 60.875997,15.1094891 L62.5464867,15.1094891 C62.5848652,15.1094891 62.6159115,15.0786444 62.6159115,15.040434 C62.6161097,14.2336732 62.6161097,6.62281615 62.6161097,5.81605544 C62.6161097,5.77784495 62.5850634,5.74693458 62.5466188,5.74693458 L56.4626648,5.74693458 Z" id="Fill-19" fill="#FF5745"></path>
                            <path d="M41.830523,6.49150528 C41.2341528,5.94399067 40.450967,5.64963504 39.4259579,5.64963504 C38.7107891,5.64963504 38.0965232,5.75548479 37.4937476,6.1529963 C37.3589683,6.24012031 37.218576,6.35405171 37.1276446,6.43263415 C37.0995133,6.45694477 37.071514,6.48217525 37.0434488,6.50799707 L37.0434488,5.82940222 C37.0434488,5.79122798 37.0123459,5.76021551 36.973979,5.76021551 L35.3034029,5.76021551 C35.2650361,5.76021551 35.2339332,5.79122798 35.2339332,5.82940222 L35.2339332,15.040368 C35.2339332,15.0785423 35.2650361,15.1094891 35.3034029,15.1094891 L36.973979,15.1094891 C37.0123459,15.1094891 37.0434488,15.0785423 37.0434488,15.040368 L37.0434488,8.93314579 C37.0434488,8.44719619 37.4089575,8.01341586 37.8031257,7.76860134 C38.2824803,7.47096049 39.1007311,7.43456026 39.6512723,7.52523231 C40.5327195,7.6705704 41.1446081,8.37741813 41.1446081,9.29300869 L41.1446081,15.040368 C41.1446081,15.0785423 41.175711,15.1094891 41.2140779,15.1094891 L42.8842577,15.1094891 C42.9226246,15.1094891 42.9537275,15.0785423 42.9537275,15.040368 L42.9537275,9.29300869 C42.9537275,8.2688745 42.6783578,7.26990508 41.830523,6.49150528" id="Fill-20" fill="#FF5745"></path>
                            <path d="M0,15.030282 L11.8766067,18 L11.8766067,16.2723157 L2.22673179,13.8594281 L4.90206941,12.4684685 L11.8766067,14.2123718 L11.8766067,12.4846219 L7.14615424,11.3018827 L11.8766067,8.84257067 L11.8766067,6.95203978 L0,13.126487 L0,15.030282 Z M11.8766067,2.96952098 L11.8766067,4.87344732 L0,11.0478946 L0,9.15736367 L4.7305844,6.6980516 L0,5.51518114 L0,3.78749685 L6.97453728,5.5314658 L9.64994087,4.14050627 L0,1.72774995 L0,0 L11.8766067,2.96952098 Z" id="Fill-21" fill="#FF5745"></path>
                        </g>
                    </g>
                </g>
            </g>
        </g>
    </g>
</svg>
