<?xml version="1.0" encoding="UTF-8"?>
<svg width="24px" height="24px" viewBox="0 0 24 24" version="1.1" xmlns="http://www.w3.org/2000/svg" xmlns:xlink="http://www.w3.org/1999/xlink">
    <title>bell</title>
    <g id="bell" stroke="none" stroke-width="1" fill="none" fill-rule="evenodd">
        <path d="M13.0633857,18.6794634 C12.7461045,18.8929642 12.3662131,19 11.9232884,19 C11.4795177,19 11.0992033,18.8929642 10.7827681,18.6794634 C10.4659099,18.4653918 10.3076923,18.2139289 10.3076923,17.9230769 L13.5384615,17.9230769 C13.5384615,18.2139289 13.3798209,18.4653918 13.0633857,18.6794634 L13.0633857,18.6794634 Z M16.4429805,14.751778 L17.8461538,16.1588343 L17.8461538,16.8461538 L6,16.8461538 L6,16.1588343 L7.40317335,14.751778 L7.40317335,10.9228948 C7.40317335,9.85421678 7.72972081,8.91047283 8.38245249,8.09239142 C9.03518418,7.27431001 9.86154176,6.74543459 10.862615,6.50503667 L10.862615,6.04718791 C10.862615,5.7419554 10.9654102,5.4906303 11.1724536,5.29430533 C11.3791339,5.09798036 11.6294021,5 11.9232585,5 C12.2167517,5 12.4615715,5.09798036 12.6573547,5.29430533 C12.8531378,5.4906303 12.9512111,5.7419554 12.9512111,6.04718791 L12.9512111,6.50503667 C13.9733518,6.74543459 14.8113329,7.27431001 15.4640646,8.09239142 C16.1167963,8.91047283 16.4429805,9.85421678 16.4429805,10.9228948 L16.4429805,14.751778 Z" id="Fill-1" fill="#123466"></path>
    </g>
</svg>
